<?xml version="1.0" standalone="no"?>
<!DOCTYPE svg PUBLIC "-//W3C//DTD SVG 20010904//EN"
 "http://www.w3.org/TR/2001/REC-SVG-20010904/DTD/svg10.dtd">
<svg version="1.0" xmlns="http://www.w3.org/2000/svg"
 width="300.000000pt" height="300.000000pt" viewBox="0 0 300.000000 300.000000"
 preserveAspectRatio="xMidYMid meet">
<metadata>
Created by potrace 1.10, written by Peter Selinger 2001-2011
</metadata>
<g transform="translate(0.000000,300.000000) scale(0.100000,-0.100000)"
fill="#000000" stroke="none">
<path d="M1990 1898 l0 -33 222 0 223 0 2 -225 1 -225 29 0 28 0 3 258 2 257
-255 0 -255 0 0 -32z"/>
<path d="M630 1615 l0 -105 30 0 30 0 0 105 0 105 -30 0 -30 0 0 -105z"/>
<path d="M973 1705 c-70 -30 -93 -70 -93 -158 0 -61 2 -67 38 -108 38 -42 41
-43 109 -47 64 -4 71 -2 102 24 92 77 79 234 -22 283 -50 24 -89 26 -134 6z
m128 -74 c24 -24 29 -38 29 -76 0 -57 -12 -80 -52 -101 -72 -37 -138 11 -138
101 0 47 4 56 31 79 43 36 91 35 130 -3z"/>
<path d="M1006 1564 c-9 -22 17 -49 39 -40 10 3 15 15 13 28 -4 29 -42 37 -52
12z"/>
<path d="M1260 1690 l0 -30 69 0 c75 0 95 -12 89 -52 -3 -21 -8 -23 -80 -26
l-78 -3 0 -98 0 -98 30 0 30 0 0 69 c0 60 2 68 19 68 13 0 27 -20 50 -68 28
-62 34 -69 61 -70 37 -1 37 8 0 83 -34 69 -35 75 -16 75 37 0 60 86 35 132
-16 30 -70 48 -144 48 l-65 0 0 -30z"/>
<path d="M1550 1553 l0 -168 77 1 78 1 0 29 c0 28 -2 29 -48 29 l-47 0 0 40 0
40 70 -3 70 -4 0 31 0 31 -70 0 -70 0 0 40 0 40 51 0 c49 0 50 1 47 28 -3 27
-4 27 -80 30 l-78 3 0 -168z"/>
<path d="M1807 1713 c-3 -5 -4 -19 -3 -33 1 -24 3 -25 67 -22 51 3 70 0 82
-13 41 -40 8 -65 -85 -65 l-63 0 1 -97 2 -98 28 0 c29 0 29 0 30 65 l1 65 49
5 c63 7 88 22 104 60 20 47 0 103 -44 124 -35 16 -161 23 -169 9z"/>
<path d="M2157 1567 c-79 -205 -75 -187 -36 -184 32 2 33 5 62 95 17 50 33 92
36 92 3 -1 20 -42 36 -93 30 -89 32 -92 63 -94 18 -2 32 -2 32 0 0 1 -23 61
-51 132 -28 72 -55 144 -61 160 -6 17 -13 33 -17 37 -3 4 -32 -62 -64 -145z"/>
<path d="M500 1335 l0 -255 250 0 250 0 0 30 0 30 -220 0 -220 0 0 225 0 225
-30 0 -30 0 0 -255z"/>
<path d="M630 1418 l0 -33 92 2 93 2 0 28 0 28 -92 3 -93 3 0 -33z"/>
</g>
</svg>
